<?xml version="1.0" encoding="UTF-8" standalone="no" ?>
<!DOCTYPE svg PUBLIC "-//W3C//DTD SVG 1.1//EN" "http://www.w3.org/Graphics/SVG/1.1/DTD/svg11.dtd">
<svg xmlns="http://www.w3.org/2000/svg" xmlns:xlink="http://www.w3.org/1999/xlink" version="1.1" width="1080" height="1080" viewBox="0 0 1080 1080" xml:space="preserve">
<desc>Created with Fabric.js 5.2.4</desc>
  <defs>

  </defs>
<rect x="0" y="0" width="100%" height="100%" fill="transparent"></rect>
<g transform="matrix(1 0 0 1 540 540)" id="bcc7f122-af86-4bad-92e4-0ee78d92266c"  >
<rect style="stroke: none; stroke-width: 1; stroke-dasharray: none; stroke-linecap: butt; stroke-dashoffset: 0; stroke-linejoin: miter; stroke-miterlimit: 4; fill: rgb(255,255,255); fill-rule: nonzero; opacity: 1; visibility: hidden;" vector-effect="non-scaling-stroke"  x="-540" y="-540" rx="0" ry="0" width="1080" height="1080" />
</g>
<g transform="matrix(0 0 0 0 0 0)" id="9928cede-378a-4e0e-b375-369004b93319"  >
</g>
<g transform="matrix(10.79 0 0 10.79 540 540)"  >
<path style="stroke: rgb(0,0,0); stroke-width: 0; stroke-dasharray: none; stroke-linecap: butt; stroke-dashoffset: 0; stroke-linejoin: miter; stroke-miterlimit: 4; fill: rgb(0,0,0); fill-rule: nonzero; opacity: 1;" vector-effect="non-scaling-stroke"  transform=" translate(-44, -50)" d="M 47 1.732 L 84.301 23.268 C 86.1573593016269 24.339769541584715 87.30094554559582 26.32046091613888 87.301 28.463999999999995 L 87.301 71.536 C 87.30094554559582 73.67953908386112 86.1573593016269 75.66023045841528 84.301 76.732 L 47 98.268 C 45.14359353944898 99.33979676972449 42.856406460551014 99.33979676972449 41 98.268 L 3.699 76.732 C 1.8426406983731023 75.66023045841528 0.6990544544041817 73.67953908386112 0.6989999999999998 71.536 L 0.6989999999999998 28.464 C 0.6990544544041813 26.320460916138888 1.8426406983730999 24.33976954158472 3.698999999999997 23.268 L 41 1.732 C 42.85640646055102 0.6602032302755081 45.14359353944898 0.6602032302755088 47 1.7319999999999982 z" stroke-linecap="round" />
</g>
<g transform="matrix(5.65 0 0 5.65 540 540)"  >
<path style="stroke: none; stroke-width: 1; stroke-dasharray: none; stroke-linecap: butt; stroke-dashoffset: 0; stroke-linejoin: miter; stroke-miterlimit: 4; fill: rgb(255,255,255); fill-rule: evenodd; opacity: 1;"  transform=" translate(-49.97, -49.53)" d="M 32.813 50.453 C 24.919 39.577 14.21 32.557 9.769 29.942 C 9.29457233312625 29.662182849215434 8.714021612366494 29.629406874538233 8.21111396059477 29.85404690382489 C 7.708206308823042 30.078686933111552 7.345199935044035 30.532933316131306 7.237 31.073 C 5.03 42.282 3.943 54.115 6.41 65.381 C 8.98 77.115 15.701 86.527 26.34 92.003 C 20.524 83.303 16.6 74.26 14.036 64.131 C 13.73 62.919 14.991 63.266 15.349 64.029 C 19.199 72.304 23.773 79.51899999999999 29.86 86.339 C 30.313 86.846 30.783 87.33 31.253999999999998 87.803 C 28.813 79.749 26.950999999999997 67.366 31.648999999999997 53.546 C 32.003 52.506 32.396 51.476 32.812999999999995 50.453 z M 47.655 93.057 C 56.968 90.315 65.741 84.84 72.599 77.977 C 83.21300000000001 67.358 89.38900000000001 53.14 92.433 38.565000000000005 C 94.50982972833638 28.58929785869885 95.29793268053211 18.38832177852965 94.77800000000002 8.211999999999993 C 94.7311730510414 7.239727529606079 94.08214073805384 6.4001792699754105 93.153 6.110000000000003 C 92.6330399501765 5.943804663896344 92.07114949209416 5.966110334255 91.566 6.173000000000004 C 19.343 35.285 31.376 79.19 36.72 91.893 C 37.477183059675234 91.23105042793085 38.224269209297304 90.55763944076595 38.960999999999984 89.87300000000003 C 41.351 87.586 43.641 85.19300000000001 45.839999999999996 82.718 C 61.945 64.59 74.33 43.513 86.053 22.364 C 86.13127166891819 22.215241863083495 86.26599643438675 22.104141811199025 86.42693861300913 22.055633537735737 C 86.5878807916315 22.007125264272446 86.76156065523577 22.025271584497123 86.90899999999999 22.106 C 87.19399999999999 22.266000000000002 87.306 22.618000000000002 87.17599999999999 22.912000000000003 C 82.91599999999998 32.608000000000004 76.73899999999999 48.392 68.78299999999999 62.182 C 59.12599999999999 78.919 47.89299999999999 92.986 47.65499999999999 93.057 z" stroke-linecap="round" />
</g>
</svg>
